# 3ds Max Wavefront OBJ Exporter v0.97b - (c)2007 guruware
# File Created: 19.10.2018 11:14:10

mtllib room.mtl

#
# object Box001
#

v  -145.6639 -2.8276 16.4160
v  -145.6639 -2.8276 -46.2520
v  -362.9320 -2.8276 -46.2520
v  -362.9320 -2.8276 16.4160
v  -126.9525 -2.8276 16.4160
v  -126.9525 -2.8276 -46.2520
v  -362.9320 -2.8276 -138.1550
v  -145.6639 -2.8276 -138.1550
# 8 vertices

vn 0.0000 1.0000 -0.0000
# 1 vertex normals

vt 1.8687 1.6517 0.5000
vt 0.7589 1.6517 0.5000
vt 0.7589 -0.8687 0.5000
vt 1.8687 -0.8687 0.5000
vt 1.8687 1.8687 0.5000
vt 0.7589 1.8687 0.5000
vt -0.8687 -0.8687 0.5000
vt -0.8687 1.6517 0.5000
# 8 texture coords

o Box001
g Box001
usemtl Material__28
s 2
f 1/1/1 2/2/1 3/3/1 4/4/1 
f 5/5/1 6/6/1 2/2/1 1/1/1 
f 7/7/1 3/3/1 2/2/1 8/8/1 
# 3 polygons

#
# object Box002
#

v  297.9953 -2.8276 17.3594
v  297.9953 -2.8276 -45.3086
v  18.2537 -2.8276 -45.3086
v  18.2537 -2.8276 17.3594
v  18.2537 -2.8276 -137.2116
v  297.9953 -2.8276 -137.2116
# 6 vertices

vn 0.0000 1.0000 -0.0000
# 1 vertex normals

vt 1.8687 2.3764 0.5000
vt 0.7589 2.3764 0.5000
vt 0.7589 -0.8687 0.5000
vt 1.8687 -0.8687 0.5000
vt -0.8687 -0.8687 0.5000
vt -0.8687 2.3764 0.5000
# 6 texture coords

o Box002
g Box002
usemtl Material__28
s 2
f 9/9/2 10/10/2 11/11/2 12/12/2 
f 13/13/2 11/11/2 10/10/2 14/14/2 
# 2 polygons

#
# object Box003
#

v  48.9196 -2.8276 16.8754
v  48.9196 -2.8276 77.1456
v  297.9953 -2.8276 77.1456
v  297.9953 -2.8276 16.8754
v  297.9953 -2.8276 157.4452
v  48.9196 -2.8276 157.4452
v  18.2537 -2.8276 16.8754
v  18.2537 -2.8276 77.1456
# 8 vertices

vn 0.0000 1.0000 -0.0000
# 1 vertex normals

vt -0.6509 1.3665 0.5000
vt -0.6509 0.5284 0.5000
vt 2.6476 0.5284 0.5000
vt 2.6476 1.3665 0.5000
vt 2.6476 -0.5882 0.5000
vt -0.6509 -0.5882 0.5000
vt -1.0570 1.3665 0.5000
vt -1.0570 0.5284 0.5000
# 8 texture coords

o Box003
g Box003
usemtl plitaca_kuh
s 2
f 15/15/3 16/16/3 17/17/3 18/18/3 
f 19/19/3 17/17/3 16/16/3 20/20/3 
f 21/21/3 22/22/3 16/16/3 15/15/3 
# 3 polygons

#
# object Box004
#

v  -35.9374 -2.8276 -136.1723
v  -146.2090 -2.8276 -136.1723
v  -146.2090 -2.8276 -45.2732
v  -35.9374 -2.8276 -45.2732
# 4 vertices

vn 0.0000 1.0000 -0.0000
# 1 vertex normals

vt -2.0624 -0.0905 0.5000
vt -2.0624 -4.0719 0.5000
vt 1.1067 -4.0719 0.5000
vt 1.1067 -0.0905 0.5000
# 4 texture coords

o Box004
g Box004
usemtl plitca
s 2
f 23/23/4 24/24/4 25/25/4 26/26/4 
# 1 polygons

#
# object Box005
#

v  18.3722 -2.8276 -136.1723
v  -35.2854 -2.8276 -136.1723
v  -35.2854 -2.8276 -45.2732
v  18.3722 -2.8276 -45.2732
# 4 vertices

vn 0.0000 1.0000 -0.0000
# 1 vertex normals

vt -2.0624 -2.1346 0.5000
vt -2.0624 -4.0719 0.5000
vt 1.1067 -4.0719 0.5000
vt 1.1067 -2.1346 0.5000
# 4 texture coords

o Box005
g Box005
usemtl plitca
s 2
f 27/27/5 28/28/5 29/29/5 30/30/5 
# 1 polygons

#
# object Box006
#

v  -48.3182 -2.8276 16.7588
v  -48.3182 -2.8276 -45.9092
v  -127.4878 -2.8276 -45.9092
v  -127.4878 -2.8276 16.7588
v  18.4721 -2.8276 16.7588
v  18.4721 -2.8276 -45.9092
v  -48.3182 -2.8276 79.6164
v  18.4721 -2.8276 79.6164
v  -48.3182 -2.8276 159.6955
v  18.4721 -2.8276 159.6955
v  48.2622 -2.8276 159.6955
v  48.2622 -2.8276 79.6164
# 12 vertices

vn 0.0000 1.0000 -0.0000
# 1 vertex normals

vt 1.1875 1.3965 0.5000
vt 1.1875 0.6696 0.5000
vt 2.5896 0.6696 0.5000
vt 2.5896 1.3965 0.5000
vt 0.0047 1.3965 0.5000
vt 0.0047 0.6696 0.5000
vt 1.1875 2.1257 0.5000
vt 0.0047 2.1257 0.5000
vt 1.1875 3.0546 0.5000
vt 0.0047 3.0546 0.5000
vt -0.5229 3.0546 0.5000
vt -0.5229 2.1257 0.5000
# 12 texture coords

o Box006
g Box006
usemtl Material__28
s 2
f 31/31/6 32/32/6 33/33/6 34/34/6 
f 35/35/6 36/36/6 32/32/6 31/31/6 
s off
f 31/31/6 37/37/6 38/38/6 35/35/6 
f 39/39/6 40/40/6 38/38/6 37/37/6 
f 38/38/6 40/40/6 41/41/6 42/42/6 
# 5 polygons

