<?xml version="1.0" encoding="utf-8"?>
<!-- Generator: Adobe Illustrator 21.1.0, SVG Export Plug-In . SVG Version: 6.00 Build 0)  -->
<svg version="1.1" id="Capa_1" xmlns="http://www.w3.org/2000/svg" xmlns:xlink="http://www.w3.org/1999/xlink" x="0px" y="0px"
	 viewBox="0 0 512 512" style="enable-background:new 0 0 512 512;" xml:space="preserve">
<style type="text/css">
	.st0{fill:#FFFFFF;}
</style>
<g>
	<path class="st0" d="M379.9,131.1c-28.4,0-51.5,23.1-51.5,51.5s23.1,51.5,51.5,51.5c28.4,0,51.5-23.1,51.5-51.5
		C431.4,154.2,408.3,131.1,379.9,131.1z M379.9,214.1c-17.4,0-31.5-14.1-31.5-31.5s14.1-31.5,31.5-31.5c17.4,0,31.5,14.1,31.5,31.5
		C411.4,200,397.3,214.1,379.9,214.1z"/>
	<path class="st0" d="M456.1,49.3C450.1,24,427.3,5,400.2,5H86.4C38.8,5,0,43.8,0,91.5v313.8c0,31.2,24.9,56.6,55.9,57.5
		c6,25.3,28.8,44.3,56,44.3h342.7c31.7,0,57.5-25.8,57.5-57.5V374V106.8C512,75.6,487.1,50.2,456.1,49.3z M492,449.4
		c0,20.7-16.8,37.5-37.5,37.5H111.8c-16,0-29.7-10.1-35.1-24.2c-1.6-4.1-2.4-8.6-2.4-13.3v-6.7v-46.3L189,201.9
		c3.5-5.9,9.7-9.4,16.6-9.3c6.9,0.1,12.9,3.8,16.2,9.8l49.4,90.7L343,425c1.8,3.3,5.2,5.2,8.8,5.2c1.6,0,3.3-0.4,4.8-1.2
		c4.9-2.6,6.6-8.7,4-13.6l-23.3-42.8c10.2,0.5,20.3-2.8,28.3-9.5l45-37.3c7.2-6,17.9-5.7,24.8,0.6l2.3,2.2l20,18.3l34.3,31.5V449.4z
		 M492,351.3l-34.3-31.5l-20-15.2c-13-5.5-28.5-3.6-39.9,5.9l-45,37.3c-4.9,4.1-11.4,5.8-17.7,4.5c-6.3-1.2-11.7-5.1-14.8-10.8
		l-31.6-57.9l-17.6-32.4v0l-31.8-58.3c-6.8-12.4-19.3-20-33.5-20.3c-14.2-0.2-26.9,6.9-34.1,19.1L74.3,357V106.8
		c0-20.7,16.8-37.5,37.5-37.5h153.8c5.5,0,10-4.5,10-10s-4.5-10-10-10H111.8c-31.7,0-57.5,25.8-57.5,57.5v286.9v48.9
		C35.1,441,20,424.8,20,405.2V91.5C20,54.8,49.8,25,86.4,25h313.8c16,0,29.7,10.1,35.1,24.2H253.6c-5.5,0-10,4.5-10,10s4.5,10,10,10
		h184.1l20,0.1C476.9,71,492,87.2,492,106.8V351.3z"/>
</g>
</svg>
