<?xml version="1.0" encoding="utf-8"?>
<!-- Generator: Adobe Illustrator 21.1.0, SVG Export Plug-In . SVG Version: 6.00 Build 0)  -->
<svg version="1.1" id="Capa_1" xmlns="http://www.w3.org/2000/svg" xmlns:xlink="http://www.w3.org/1999/xlink" x="0px" y="0px"
	 viewBox="0 0 463.6 463.6" style="enable-background:new 0 0 463.6 463.6;" xml:space="preserve">
<style type="text/css">
	.st0{fill:#2A1F39;}
</style>
<g>
	<path class="st0" d="M83.4,329.4c-14.2-24.6-34.2-37.9-45.8-37.9c-0.8,0-1.4,0.1-2.1,0.2c-1.3,0.2-2.5,0.7-3.5,1.5
		c-6.1,4.9-5.8,17.6-5.4,22.9c0.7,8.6,3.5,22.2,13,38.6c14.2,24.6,34.2,37.9,45.8,37.9h0c0.8,0,1.5-0.1,2.2-0.2
		c1.3-0.2,2.4-0.7,3.4-1.5c6.1-4.9,5.8-17.6,5.4-22.9C95.7,359.5,92.9,345.8,83.4,329.4z M81.4,376.5c-6.4-2.8-18.5-11.2-28.9-29.2
		c-10.3-17.8-11.8-32.5-11-39.5c6.4,2.8,18.5,11.2,28.9,29.2C80.7,354.7,82.2,369.4,81.4,376.5z"/>
	<path class="st0" d="M463.6,114.3c0-2.7-1.4-5.2-3.8-6.5L307.2,19.6c-2.3-1.3-5.2-1.3-7.5,0L45.2,166.5c-2.3,1.3-3.8,3.8-3.8,6.5
		v83.9l-21.8,12.8l0,0C7.1,277,0.1,291.7,0,311.1c-0.1,17.9,5.9,38.1,16.7,56.8c18.3,31.7,45.6,51.2,68.6,51.2
		c6.4,0,12.5-1.5,17.9-4.6v0l19.2-10.9l75.7,40.5c1.1,0.6,2.3,0.9,3.5,0.9c1.3,0,2.6-0.3,3.7-1L459.8,297c2.3-1.3,3.8-3.8,3.8-6.5
		L463.6,114.3L463.6,114.3z M303.4,34.8l137.6,79.5L201.6,252.5L64,173L303.4,34.8z M77.9,252.9c15.4-8.9,45.6,5.5,66.1,41
		c9.6,16.5,14.9,34.2,14.9,49.6c0.1,14-4.2,24.2-11.9,28.6l-25.4,14.5c0.9-4.2,1.3-8.8,1.3-13.6c0.1-17.9-5.9-38.1-16.7-56.8
		c-10.8-18.7-25.3-33.9-40.9-42.9c-4.2-2.4-8.4-4.3-12.6-5.7L77.9,252.9z M95.8,401.4c-15.4,8.9-45.6-5.5-66.1-41
		c-9.5-16.5-14.7-34-14.7-49.3c0-13.8,4.4-24,12.2-28.5c3.1-1.8,6.6-2.6,10.5-2.6c6.1,0,13,2.1,20.3,6.3
		c13.3,7.6,25.8,20.9,35.4,37.3s14.7,34,14.7,49.3C107.9,386.8,103.6,396.9,95.8,401.4z M194.1,424.9l-56.4-30.2l16.7-9.6
		c12.6-7.3,19.5-22.1,19.4-41.7c-0.1-18-6.1-38.3-16.9-57c-23.4-40.6-61.5-61-86.7-46.5l-13.9,8.1V186l137.6,79.5L194.1,424.9
		L194.1,424.9z M209.1,424.4v-159l239.4-138.2v158.9L209.1,424.4z"/>
	<path class="st0" d="M408.9,195.9c-2.3-1.3-5.2-1.3-7.5,0L248.8,284c-2.3,1.3-3.8,3.8-3.8,6.5v58.8c0,2.7,1.4,5.2,3.8,6.5
		c1.2,0.7,2.5,1,3.8,1s2.6-0.3,3.7-1l152.7-88.1c2.3-1.3,3.8-3.8,3.8-6.5v-58.8C412.7,199.7,411.3,197.3,408.9,195.9z M397.7,256.8
		L260,336.3v-41.4l137.7-79.5V256.8z"/>
</g>
</svg>
