<?xml version="1.0" encoding="utf-8"?>
<!-- Generator: Adobe Illustrator 21.1.0, SVG Export Plug-In . SVG Version: 6.00 Build 0)  -->
<svg version="1.1" id="Layer_1" xmlns="http://www.w3.org/2000/svg" xmlns:xlink="http://www.w3.org/1999/xlink" x="0px" y="0px"
	 viewBox="0 0 512 512" style="enable-background:new 0 0 512 512;" xml:space="preserve">
<style type="text/css">
	.st0{fill:#FFFFFF;}
</style>
<g>
	<g>
		<g>
			<path class="st0" d="M335.1,207.1L469.3,72.8V128c0,11.8,9.6,21.3,21.3,21.3S512,139.8,512,128V21.3c0-0.7,0-1.4-0.1-2.1
				c0-0.3-0.1-0.6-0.1-0.9c-0.1-0.4-0.1-0.8-0.2-1.1c-0.1-0.4-0.2-0.7-0.3-1.1c-0.1-0.3-0.2-0.6-0.2-1c-0.1-0.3-0.2-0.7-0.4-1
				c-0.1-0.3-0.2-0.6-0.4-1c-0.1-0.3-0.3-0.6-0.4-0.9c-0.2-0.3-0.3-0.7-0.5-1c-0.2-0.3-0.3-0.6-0.5-0.9c-0.2-0.3-0.4-0.6-0.6-0.9
				c-0.2-0.3-0.4-0.6-0.7-0.9c-0.2-0.3-0.4-0.5-0.6-0.8c-0.4-0.5-0.9-1.1-1.4-1.6c0,0,0,0,0,0s0,0,0,0c-0.5-0.5-1-1-1.6-1.4
				c-0.2-0.2-0.5-0.4-0.8-0.6c-0.3-0.2-0.6-0.5-0.9-0.7c-0.3-0.2-0.6-0.4-0.9-0.6c-0.3-0.2-0.6-0.3-0.9-0.5c-0.3-0.2-0.6-0.3-1-0.5
				c-0.3-0.1-0.6-0.3-0.9-0.4c-0.3-0.1-0.6-0.2-1-0.4c-0.3-0.1-0.7-0.2-1-0.4c-0.3-0.1-0.6-0.2-1-0.2c-0.4-0.1-0.7-0.2-1.1-0.3
				c-0.4-0.1-0.8-0.1-1.1-0.2c-0.3,0-0.6-0.1-0.9-0.1C492.1,0,491.4,0,490.7,0H384c-11.8,0-21.3,9.6-21.3,21.3s9.6,21.3,21.3,21.3
				h55.2L304.9,176.9c-8.3,8.3-8.3,21.8,0,30.2S326.8,215.4,335.1,207.1z"/>
			<path class="st0" d="M176.9,304.9L42.7,439.2V384c0-11.8-9.6-21.3-21.3-21.3C9.6,362.7,0,372.2,0,384v106.7c0,0.7,0,1.4,0.1,2.1
				c0,0.3,0.1,0.6,0.1,0.9c0.1,0.4,0.1,0.8,0.2,1.1c0.1,0.4,0.2,0.7,0.3,1.1c0.1,0.3,0.2,0.6,0.2,1c0.1,0.3,0.2,0.7,0.4,1
				c0.1,0.3,0.2,0.6,0.4,1s0.3,0.6,0.4,0.9c0.2,0.3,0.3,0.7,0.5,1c0.2,0.3,0.3,0.6,0.5,0.9c0.2,0.3,0.4,0.6,0.6,0.9
				c0.2,0.3,0.4,0.6,0.7,0.9c0.2,0.3,0.4,0.5,0.6,0.8c0.4,0.5,0.9,1.1,1.4,1.6c0,0,0,0,0,0c0,0,0,0,0,0c0.5,0.5,1,1,1.6,1.4
				c0.2,0.2,0.5,0.4,0.8,0.6c0.3,0.2,0.6,0.5,0.9,0.7c0.3,0.2,0.6,0.4,0.9,0.6c0.3,0.2,0.6,0.4,0.9,0.5c0.3,0.2,0.6,0.3,1,0.5
				c0.3,0.1,0.6,0.3,0.9,0.4c0.3,0.1,0.6,0.2,1,0.4c0.3,0.1,0.7,0.2,1,0.4c0.3,0.1,0.6,0.2,1,0.2c0.4,0.1,0.7,0.2,1.1,0.3
				c0.4,0.1,0.8,0.1,1.1,0.2c0.3,0,0.6,0.1,0.9,0.1c0.7,0.1,1.4,0.1,2.1,0.1h0H128c11.8,0,21.3-9.6,21.3-21.3s-9.6-21.3-21.3-21.3
				H72.8l134.2-134.2c8.3-8.3,8.3-21.8,0-30.2S185.2,296.6,176.9,304.9z"/>
			<path class="st0" d="M507.7,503.4c0.2-0.3,0.5-0.6,0.7-0.9c0.2-0.3,0.4-0.6,0.6-0.9c0.2-0.3,0.3-0.6,0.5-0.9
				c0.2-0.3,0.3-0.6,0.5-1c0.1-0.3,0.3-0.6,0.4-0.9c0.1-0.3,0.2-0.6,0.4-1c0.1-0.3,0.2-0.7,0.4-1c0.1-0.3,0.2-0.6,0.2-1
				c0.1-0.4,0.2-0.7,0.3-1.1c0.1-0.4,0.1-0.8,0.2-1.1c0-0.3,0.1-0.6,0.1-0.9c0.1-0.7,0.1-1.4,0.1-2.1V384c0-11.8-9.6-21.3-21.3-21.3
				s-21.3,9.6-21.3,21.3v55.2L335.1,304.9c-8.3-8.3-21.8-8.3-30.2,0s-8.3,21.8,0,30.2l134.2,134.2H384c-11.8,0-21.3,9.6-21.3,21.3
				S372.2,512,384,512h106.7c0.7,0,1.4,0,2.1-0.1c0.3,0,0.6-0.1,0.9-0.1c0.4-0.1,0.8-0.1,1.1-0.2c0.4-0.1,0.7-0.2,1.1-0.3
				c0.3-0.1,0.6-0.2,1-0.2c0.3-0.1,0.7-0.2,1-0.4c0.3-0.1,0.6-0.2,1-0.4c0.3-0.1,0.6-0.3,0.9-0.4c0.3-0.2,0.7-0.3,1-0.5
				c0.3-0.2,0.6-0.3,0.9-0.5c0.3-0.2,0.6-0.4,0.9-0.6c0.3-0.2,0.6-0.4,0.9-0.7c0.3-0.2,0.5-0.4,0.8-0.6c0.5-0.4,1-0.9,1.5-1.4
				c0,0,0,0,0,0s0,0,0,0c0.5-0.5,1-1,1.4-1.5C507.4,503.9,507.5,503.7,507.7,503.4z"/>
			<path class="st0" d="M72.8,42.7H128c11.8,0,21.3-9.6,21.3-21.3C149.3,9.6,139.8,0,128,0H21.3h0c-0.7,0-1.4,0-2.1,0.1
				c-0.3,0-0.6,0.1-0.9,0.1c-0.4,0.1-0.8,0.1-1.1,0.2c-0.4,0.1-0.7,0.2-1.1,0.3c-0.3,0.1-0.6,0.2-1,0.2c-0.3,0.1-0.7,0.2-1,0.4
				c-0.3,0.1-0.6,0.2-1,0.4c-0.3,0.1-0.6,0.3-0.9,0.4c-0.3,0.2-0.6,0.3-1,0.5C11,2.7,10.7,2.9,10.4,3c-0.3,0.2-0.6,0.4-0.9,0.6
				C9.2,3.8,8.9,4,8.6,4.3C8.3,4.5,8.1,4.6,7.8,4.8c-1.1,0.9-2.1,1.9-3,3C4.6,8.1,4.5,8.3,4.3,8.6C4,8.9,3.8,9.2,3.6,9.5
				C3.4,9.8,3.2,10.1,3,10.4c-0.2,0.3-0.4,0.6-0.5,0.9c-0.2,0.3-0.3,0.6-0.5,1c-0.1,0.3-0.3,0.6-0.4,0.9c-0.1,0.3-0.2,0.6-0.4,1
				c-0.1,0.3-0.2,0.7-0.4,1c-0.1,0.3-0.2,0.6-0.2,1c-0.1,0.4-0.2,0.7-0.3,1.1c-0.1,0.4-0.1,0.8-0.2,1.1c0,0.3-0.1,0.6-0.1,0.9
				C0,19.9,0,20.6,0,21.3V128c0,11.8,9.6,21.3,21.3,21.3s21.3-9.6,21.3-21.3V72.8l134.2,134.2c8.3,8.3,21.8,8.3,30.2,0
				s8.3-21.8,0-30.2L72.8,42.7z"/>
		</g>
	</g>
</g>
</svg>
