<?xml version="1.0" encoding="utf-8"?>
<!-- Generator: Adobe Illustrator 21.1.0, SVG Export Plug-In . SVG Version: 6.00 Build 0)  -->
<svg version="1.1" id="Layer_1" xmlns="http://www.w3.org/2000/svg" xmlns:xlink="http://www.w3.org/1999/xlink" x="0px" y="0px"
	 viewBox="0 0 512 512" style="enable-background:new 0 0 512 512;" xml:space="preserve">
<style type="text/css">
	.st0{fill:#2A1F39;}
</style>
<g>
	<g>
		<path class="st0" d="M416.2,259.6c0-2.6-1.1-5.2-2.9-7.1l-89.9-89.9c-1.3-1.3-2.9-2.1-4.5-2.5c1.4-18.4-6.9-39.9-11.3-49.7
			c11.5-11.7,18.7-27.8,18.7-45.5c0-35.8-29.1-64.9-64.9-64.9s-64.9,29.1-64.9,64.9c0,16.4,6.1,31.4,16.2,42.9
			c-13.2,10.3-40.8,32.4-63.2,54.9c-33,33-23.3,114.7-22.8,118.1c0.4,3.4,2.6,6.4,5.8,7.8c3.1,1.4,6.8,1.2,9.7-0.8l30-20
			c2.3-1.5,4.4-3.9,4.9-6.7c0.1-0.5,5.7-39.5,30.7-62.1V297l-59.4,107.9c-19.3,38.6-42.8,81.7-48.3,87.3c-5,5-4.7,10.6-2.6,14.1
			c1.8,3,3.3,5.7,11.5,5.7c9.1,0,26.2-3.3,60.6-13.1c2.9-0.8,5.3-3,6.5-5.8c0.5-1.1,46.4-111.1,75.6-153.3
			c12.9,8.2,27.6,15.7,42.6,19.4c34.2,8.5,52.3,63.7,52.3,100.2c0,41.3,10.9,50,20,50h30c5.5,0,10-4.5,10-10
			c0-20.4-0.5-123.3-11-144.3c-9.7-19.4-55.6-51.8-69.7-61.4c-2.6-14.5-4.9-29.8-6.9-44.3c20.6,12.6,52.1,30.3,67.7,30.3
			C415.8,279.6,416.2,260.4,416.2,259.6z M261.4,20c24.8,0,44.9,20.2,44.9,44.9s-20.2,44.9-44.9,44.9s-44.9-20.2-44.9-44.9
			C216.5,40.1,236.6,20,261.4,20z M159.2,481c-11.7,3.2-24.2,6.4-34,8.5c14.5-24.3,35.2-65.4,40.1-75.3l53.8-98.6
			c4.2,3.7,9.6,8.1,15.8,12.8C207.6,368.1,168.3,459.4,159.2,481z M377.3,364c5.8,11.5,8.6,78,8.9,125.4h-16.2
			c-1.3-2.5-3.7-11-3.7-30c0-42.6-20.4-107.9-66.9-119.5c-30.8-7.7-64.3-35.6-71.7-44.5V179.7c0-3.5-2.4-6.7-5.3-8.5
			c-2.9-1.8-6.9-2-10-0.4c-37.8,18.9-51.3,67.8-54.6,82.8l-12.4,8.2c-1.2-26.5,1-67.7,18.4-85c23.7-23.7,54.2-47.7,64.9-56
			c9.7,5.7,20.9,9,32.9,9c10.7,0,20.8-2.6,29.7-7.2c5.4,13.4,11,33.2,6.3,42.7c-10.6,21.3,4.3,109.5,9.1,136.1c0.5,2.7,2,5,4.3,6.5
			C333.1,322.8,370.9,351.2,377.3,364z M315.5,223.8c-1.8-18.1-2.6-33.4-1.8-42.5l77.9,77.9c-1.4,0.2-3.2,0.4-5.5,0.4
			C375.1,259.6,339.5,239.4,315.5,223.8z"/>
	</g>
</g>
</svg>
