<?xml version="1.0" encoding="utf-8"?>
<!-- Generator: Adobe Illustrator 21.1.0, SVG Export Plug-In . SVG Version: 6.00 Build 0)  -->
<svg version="1.1" id="Capa_1" xmlns="http://www.w3.org/2000/svg" xmlns:xlink="http://www.w3.org/1999/xlink" x="0px" y="0px"
	 viewBox="0 0 490 490" style="enable-background:new 0 0 490 490;" xml:space="preserve">
<style type="text/css">
	.st0{fill:#FFFFFF;}
</style>
<g>
	<g>
		<path class="st0" d="M0,167.9V384c0,33,26.8,59.8,59.8,59.8h370.4c33,0,59.8-26.8,59.8-59.8V167.8c0-31.4-25.5-56.9-56.9-56.9
			h-79.6l-1.9-8.3c-7.7-33.3-37-56.5-71.2-56.5h-70.9c-34.1,0-63.4,23.2-71.2,56.5l-1.9,8.3H56.9C25.5,110.9,0,136.6,0,167.9z
			 M146.2,135.4c5.7,0,10.6-3.9,11.9-9.5l4.1-17.8c5.2-22.1,24.6-37.5,47.3-37.5h70.9c22.7,0,42.1,15.4,47.3,37.5l4.1,17.8
			c1.3,5.5,6.2,9.5,11.9,9.5H433c17.9,0,32.4,14.5,32.4,32.4V384c0,19.5-15.8,35.3-35.3,35.3H59.8c-19.5,0-35.3-15.8-35.3-35.3
			V167.8c0-17.9,14.5-32.4,32.4-32.4L146.2,135.4L146.2,135.4z"/>
		<circle class="st0" cx="82.9" cy="187.8" r="16.4"/>
		<path class="st0" d="M245,381c56.7,0,102.9-46.2,102.9-102.9S301.7,175.2,245,175.2s-102.9,46.1-102.9,102.9S188.3,381,245,381z
			 M245,199.6c43.2,0,78.4,35.2,78.4,78.4s-35.2,78.4-78.4,78.4s-78.4-35.2-78.4-78.4S201.8,199.6,245,199.6z"/>
	</g>
</g>
</svg>
