<?xml version="1.0" encoding="utf-8"?>
<!-- Generator: Adobe Illustrator 21.1.0, SVG Export Plug-In . SVG Version: 6.00 Build 0)  -->
<svg version="1.1" id="Capa_1" xmlns="http://www.w3.org/2000/svg" xmlns:xlink="http://www.w3.org/1999/xlink" x="0px" y="0px"
	 viewBox="0 0 60 60" style="enable-background:new 0 0 60 60;" xml:space="preserve">
<style type="text/css">
	.st0{fill:#2A1F39;}
</style>
<g>
	<path class="st0" d="M50,32c2.8,0,5-2.2,5-5s-2.2-5-5-5s-5,2.2-5,5S47.2,32,50,32z M50,24c1.7,0,3,1.3,3,3s-1.3,3-3,3s-3-1.3-3-3
		S48.3,24,50,24z"/>
	<path class="st0" d="M42,43H18c-0.6,0-1,0.4-1,1s0.4,1,1,1h24c0.6,0,1-0.4,1-1S42.6,43,42,43z"/>
	<path class="st0" d="M42,48H18c-0.6,0-1,0.4-1,1s0.4,1,1,1h24c0.6,0,1-0.4,1-1S42.6,48,42,48z"/>
	<path class="st0" d="M51,17V0H9v17H0v34h6v3h3v6h42v-6h3v-3h6V17H51z M11,2h38v15H11V2z M9,19h42h7v16H2V19H9z M8,52v-2v-1v-4
		c0-0.6-0.4-1-1-1s-1,0.4-1,1v4H2V37h7v15H8z M49,58H11v-4V37h38v17V58z M54,49v-4c0-0.6-0.4-1-1-1s-1,0.4-1,1v4v1v2h-1V37h7v12H54z
		"/>
</g>
</svg>
